:SAMPLES-PER-SECOND 30
:FULLY-SPECIFIED
:DEGREES
168
root  -3.19242 30.5844 22.5051 -158.859 5.60094 -176.823
RightUpLeg  -68.5463 -11.8971 10.0718
RightLeg  92.0652 17.7804 -17.8238
RightFoot  -12.3227 0.0179639 2.00086
RightToes  -1.16415e-010 -3.18055e-015 -2.98177e-016
Spine  37.1373 1.00823 -7.04267
Spine1  -9.64069 -3.48808 6.6674
HEad  -26.6709 4.63951 -3.68297
LeftShoulder1  -3.88251e-019 9.70628e-020 -3.87848e-018
LeftArm  -14.3438 20.4451 -42.1158
LeftForeArm  5.86466 -44.6063 11.6214
LeftHand  -3.98716 -9.37207 31.6724
RightShoulder  4.83099 9.14631 23.7077
RightArm  17.7716 -59.5959 9.00871
RightForeArm  -4.66607 31.8179 -17.0223
RightHand  -1.11036 1.04721 -19.5743
LeftUpLeg  -64.5889 4.72346 -6.48185
LeftLeg  76.8295 -11.3324 13.7226
LeftFoot  -35.1749 -0.466021 -1.89883
LeftToes  1.69338e-011 3.79281e-011 -2.20049e-011
169
root  -3.16978 30.5172 21.8306 -159.291 6.18211 -176.024
RightUpLeg  -74.3701 -12.0636 14.7821
RightLeg  86.5588 16.3055 -20.1364
RightFoot  -14.0307 0.0490532 0.64463
RightToes  -1.16415e-010 -3.18055e-015 -2.98177e-016
Spine  37.207 0.975671 -6.00636
Spine1  -8.58007 -3.54558 7.28718
HEad  -26.6806 5.07977 -3.18534
LeftShoulder1  -3.88251e-019 9.70628e-020 -3.87848e-018
LeftArm  -14.8428 20.6108 -43.2433
LeftForeArm  6.62476 -43.1785 11.0701
LeftHand  -4.02943 -9.44321 31.8401
RightShoulder  4.88043 9.16431 23.9635
RightArm  18.1823 -58.8059 8.39356
RightForeArm  -4.33221 32.0258 -17.1638
RightHand  -1.05571 0.918213 -18.994
LeftUpLeg  -62.8072 5.80327 -5.76759
LeftLeg  77.7176 -11.5527 13.6097
LeftFoot  -37.0393 -0.592317 -2.31452
LeftToes  1.69338e-011 3.79281e-011 -2.20049e-011
170
root  -3.09235 30.3182 21.1549 -159.77 6.65219 -175.343
RightUpLeg  -78.9406 -11.5816 18.7222
RightLeg  80.6311 14.3123 -19.6533
RightFoot  -14.6894 0.0574801 0.951271
RightToes  -1.16415e-010 -3.18055e-015 -2.98177e-016
Spine  37.1385 0.920456 -4.96365
Spine1  -7.50496 -3.59346 7.79582
HEad  -26.5267 5.4486 -2.50283
LeftShoulder1  -3.88251e-019 9.70628e-020 -3.87848e-018
LeftArm  -15.0917 20.7052 -44.238
LeftForeArm  7.0373 -41.9145 10.5929
LeftHand  -4.03636 -9.48872 31.7973
RightShoulder  4.91711 9.15858 24.1895
RightArm  18.4298 -58.355 8.00156
RightForeArm  -3.68517 32.5807 -17.5334
RightHand  -1.03609 0.9302 -18.6125
LeftUpLeg  -61.3158 6.72114 -4.97445
LeftLeg  79.275 -11.9262 13.4343
LeftFoot  -38.9316 -0.820698 -3.11238
LeftToes  1.69338e-011 3.79281e-011 -2.20049e-011
171
root  -2.962 30.0287 20.4888 -160.289 6.88548 -174.529
RightUpLeg  -81.7792 -10.506 21.6488
RightLeg  73.8468 12.6539 -16.1923
RightFoot  -14.9509 0.0706384 1.76813
RightToes  -1.16415e-010 -3.18055e-015 -2.98177e-016
Spine  37.2374 0.918412 -3.63904
Spine1  -6.78611 -3.62769 8.65849
HEad  -26.2397 5.64275 -1.7911
LeftShoulder1  -3.88251e-019 9.70628e-020 -3.87848e-018
LeftArm  -14.9357 20.8876 -45.1045
LeftForeArm  6.65299 -40.9633 10.2124
LeftHand  -4.07255 -9.58788 31.8592
RightShoulder  4.92642 9.16287 24.2358
RightArm  18.246 -58.5296 7.75521
RightForeArm  -3.39959 33.4655 -18.0982
RightHand  -1.05624 1.03927 -18.6591
LeftUpLeg  -60.1748 7.55151 -3.78868
LeftLeg  81.5867 -12.4709 12.9336
LeftFoot  -40.3681 -1.10391 -4.09528
LeftToes  1.69338e-011 3.79281e-011 -2.20049e-011
172
root  -2.74018 29.6012 19.7992 -161.123 6.45508 -174.084
RightUpLeg  -82.5037 -9.60081 22.8191
RightLeg  66.7676 12.3013 -10.8422
RightFoot  -13.8866 0.0504534 1.12715
RightToes  -1.16415e-010 -3.18055e-015 -2.98177e-016
Spine  37.6896 0.770251 -2.58647
Spine1  -6.29665 -3.78435 9.82404
HEad  -25.7538 5.58091 -1.05104
LeftShoulder1  -3.88251e-019 9.70628e-020 -3.87848e-018
LeftArm  -14.6443 21.14 -46.0718
LeftForeArm  5.95523 -40.1474 9.8768
LeftHand  -4.2004 -9.76009 32.437
RightShoulder  4.96339 9.22338 24.3352
RightArm  18.0916 -58.9918 7.39947
RightForeArm  -3.98069 34.3663 -18.6451
RightHand  -1.13964 1.24615 -19.4988
LeftUpLeg  -59.1115 8.08338 -2.56743
LeftLeg  84.8379 -13.1684 11.7723
LeftFoot  -41.4683 -1.34754 -4.8796
LeftToes  1.69338e-011 3.79281e-011 -2.20049e-011
173
root  -2.40124 28.9721 19.0087 -162.44 5.19849 -174.316
RightUpLeg  -82.232 -9.18388 21.909
RightLeg  62.9721 12.9985 -7.24105
RightFoot  -10.2705 0.0771412 -1.39402
RightToes  -1.16415e-010 -3.18055e-015 -2.98177e-016
Spine  38.2331 0.295616 -2.08017
Spine1  -5.5154 -4.19849 10.98
HEad  -25.0829 5.28805 -0.186508
LeftShoulder1  -3.88251e-019 9.70628e-020 -3.87848e-018
LeftArm  -14.3903 21.1128 -47.2191
LeftForeArm  5.60411 -39.0419 9.46524
LeftHand  -4.35411 -9.91355 33.2277
RightShoulder  5.03357 9.30706 24.5822
RightArm  18.017 -59.4945 7.285
RightForeArm  -4.75032 34.972 -19.0019
RightHand  -1.30878 1.54428 -21.401
LeftUpLeg  -57.7848 8.0419 -1.51637
LeftLeg  89.0505 -13.8751 10.113
LeftFoot  -42.7291 -1.60437 -5.61604
LeftToes  1.69338e-011 3.79281e-011 -2.20049e-011
174
root  -1.98862 28.1453 18.1122 -164.049 3.7697 -174.825
RightUpLeg  -82.6051 -8.77556 19.9632
RightLeg  65.4267 13.2684 -7.56321
RightFoot  -6.55353 0.316841 -5.26432
RightToes  -1.16415e-010 -3.18055e-015 -2.98177e-016
Spine  38.6174 -0.280147 -1.84658
Spine1  -4.35997 -4.6263 11.7827
HEad  -24.3619 4.84853 0.821536
LeftShoulder1  -3.88251e-019 9.70628e-020 -3.87848e-018
LeftArm  -14.0557 20.6703 -48.4533
LeftForeArm  5.33396 -37.7117 8.99727
LeftHand  -4.40172 -9.93312 33.5264
RightShoulder  5.10457 9.36381 24.8832
RightArm  17.4496 -59.8826 8.01972
RightForeArm  -4.37836 35.0512 -19.0725
RightHand  -1.57143 2.00625 -24.0421
LeftUpLeg  -56.1372 7.67016 -0.366999
LeftLeg  94.03 -14.4423 8.36669
LeftFoot  -44.2462 -1.99995 -6.72834
LeftToes  1.69338e-011 3.79281e-011 -2.20049e-011
175
root  -1.57539 27.2233 17.1778 -165.581 3.00807 -175.169
RightUpLeg  -83.6352 -8.08538 18.5162
RightLeg  71.6401 13.3821 -10.2823
RightFoot  -6.33235 0.489727 -7.95591
RightToes  -1.16415e-010 -3.18055e-015 -2.98177e-016
Spine  38.9472 -0.651909 -1.73125
Spine1  -3.35488 -4.64287 11.9837
HEad  -23.8203 4.40539 1.7976
LeftShoulder1  -3.88251e-019 9.70628e-020 -3.87848e-018
LeftArm  -13.6991 20.1543 -49.6891
LeftForeArm  4.68564 -36.8014 8.66557
LeftHand  -4.29594 -9.74947 33.152
RightShoulder  5.19259 9.41463 25.2909
RightArm  16.0356 -59.6805 9.73813
RightForeArm  -2.29769 34.4442 -18.7777
RightHand  -1.91331 2.7686 -26.5058
LeftUpLeg  -54.2199 7.50816 1.08982
LeftLeg  99.2554 -14.752 6.57507
LeftFoot  -45.8112 -2.52131 -8.14677
LeftToes  1.69338e-011 3.79281e-011 -2.20049e-011
176
root  -1.22004 26.4244 16.3537 -166.666 3.10384 -175.053
RightUpLeg  -84.4327 -6.85795 18.0123
RightLeg  76.8894 13.8372 -13.2065
RightFoot  -9.3516 0.305717 -8.13439
RightToes  -1.16415e-010 -3.18055e-015 -2.98177e-016
Spine  39.4793 -0.819928 -1.28297
Spine1  -2.8335 -4.32078 11.7922
HEad  -23.6933 4.15032 2.45331
LeftShoulder1  -3.88251e-019 9.70628e-020 -3.87848e-018
LeftArm  -13.686 19.8699 -50.8704
LeftForeArm  4.14393 -36.7005 8.60628
LeftHand  -4.09349 -9.30465 32.6114
RightShoulder  5.3195 9.49372 25.8618
RightArm  14.19 -58.5358 12.152
RightForeArm  0.503263 33.3333 -18.2027
RightHand  -2.22096 3.60229 -27.9083
LeftUpLeg  -52.2644 7.47436 2.90147
LeftLeg  103.614 -14.7916 5.09539
LeftFoot  -47.1118 -3.14119 -9.82036
LeftToes  1.69338e-011 3.79281e-011 -2.20049e-011
177
root  -0.916 25.8277 15.6592 -167.186 3.37573 -174.706
RightUpLeg  -84.9775 -5.42702 17.9291
RightLeg  80.1892 14.4234 -15.1406
RightFoot  -12.5977 0.0758851 -7.0008
RightToes  -1.16415e-010 -3.18055e-015 -2.98177e-016
Spine  40.1805 -1.10019 -0.378336
Spine1  -2.64764 -4.09581 11.5331
HEad  -23.994 4.15166 2.59995
LeftShoulder1  -3.88251e-019 9.70628e-020 -3.87848e-018
LeftArm  -14.1383 19.6615 -51.9836
LeftForeArm  4.47548 -37.0277 8.72901
LeftHand  -3.89867 -8.70833 32.4278
RightShoulder  5.43057 9.57328 26.3359
RightArm  12.6515 -56.818 14.9444
RightForeArm  2.26372 32.3846 -17.6952
RightHand  -2.28911 3.86965 -27.9246
LeftUpLeg  -50.5268 6.84996 4.57271
LeftLeg  106.431 -14.8792 4.66041
LeftFoot  -48.2955 -3.98609 -12.0967
LeftToes  1.69338e-011 3.79281e-011 -2.20049e-011
178
root  -0.632861 25.3359 14.9901 -167.339 3.41495 -174.503
RightUpLeg  -85.5003 -4.33075 17.8967
RightLeg  83.0398 15.1244 -16.4291
RightFoot  -14.6893 -0.0318731 -5.94637
RightToes  -1.16415e-010 -3.18055e-015 -2.98177e-016
Spine  40.7814 -1.51873 0.537278
Spine1  -2.57638 -4.00222 11.2832
HEad  -24.4165 4.27043 2.26407
LeftShoulder1  -3.88251e-019 9.70628e-020 -3.87848e-018
LeftArm  -14.6695 19.2322 -53.0719
LeftForeArm  5.44111 -37.1772 8.82454
LeftHand  -3.82249 -8.32979 32.6809
RightShoulder  5.45064 9.60807 26.3804
RightArm  11.6564 -55.1583 17.7921
RightForeArm  2.28467 32.2361 -17.6043
RightHand  -2.12446 3.49664 -27.0262
LeftUpLeg  -48.9401 5.71632 5.5706
LeftLeg  108.031 -15.3122 5.49051
LeftFoot  -49.5236 -5.04262 -14.8285
LeftToes  1.69338e-011 3.79281e-011 -2.20049e-011
179
root  -0.382962 24.949 14.3502 -167.297 3.68108 -174.343
RightUpLeg  -85.7852 -3.45085 18.0933
RightLeg  85.6686 15.875 -17.4505
RightFoot  -16.5161 -0.102847 -5.36895
RightToes  -1.16415e-010 -3.18055e-015 -2.98177e-016
Spine  41.1974 -1.72115 1.25799
Spine1  -2.50134 -3.71941 11.1166
HEad  -24.6595 4.3987 1.65687
LeftShoulder1  -3.88251e-019 9.70628e-020 -3.87848e-018
LeftArm  -14.9092 18.5892 -54.0955
LeftForeArm  6.15427 -37.0734 8.82441
LeftHand  -3.89638 -8.39518 33.1206
RightShoulder  5.38028 9.59553 26.0074
RightArm  10.7844 -53.6811 20.4042
RightForeArm  1.45739 32.8114 -17.9208
RightHand  -2.04201 3.37713 -26.3597
LeftUpLeg  -47.3946 5.06926 6.07837
LeftLeg  108.876 -15.9656 6.94363
LeftFoot  -50.3061 -5.95695 -17.1642
LeftToes  1.69338e-011 3.79281e-011 -2.20049e-011
180
root  -0.189459 24.7622 13.8116 -166.996 4.34599 -174.078
RightUpLeg  -85.7198 -2.64834 18.569
RightLeg  87.2753 16.3686 -17.8385
RightFoot  -18.5857 -0.175443 -5.00705
RightToes  -1.16415e-010 -3.18055e-015 -2.98177e-016
Spine  41.4825 -1.64238 1.91357
Spine1  -2.30857 -3.29395 11.2226
HEad  -24.8109 4.6379 1.089
LeftShoulder1  -3.88251e-019 9.70628e-020 -3.87848e-018
LeftArm  -14.9806 17.9446 -54.8383
LeftForeArm  6.44217 -37.1434 8.86121
LeftHand  -4.01429 -8.64673 33.4704
RightShoulder  5.26927 9.55001 25.4662
RightArm  9.56655 -52.1558 22.7845
RightForeArm  0.576573 33.4896 -18.3055
RightHand  -2.22096 4.03235 -26.6765
LeftUpLeg  -46.0763 5.09113 6.54254
LeftLeg  109.124 -16.395 7.92226
LeftFoot  -50.4314 -6.51662 -18.7186
LeftToes  1.69338e-011 3.79281e-011 -2.20049e-011
181
root  -0.0453256 24.7667 13.3489 -166.353 4.78244 -173.923
RightUpLeg  -85.5911 -2.29293 19.0061
RightLeg  87.998 16.561 -17.5382
RightFoot  -20.2802 -0.226394 -4.72607
RightToes  -1.16415e-010 -3.18055e-015 -2.98177e-016
Spine  41.6132 -1.66533 2.65887
Spine1  -1.993 -3.12437 11.6483
HEad  -25.1779 5.08546 0.790236
LeftShoulder1  -3.88251e-019 9.70628e-020 -3.87848e-018
LeftArm  -15.2569 17.4179 -55.0831
LeftForeArm  6.90702 -37.7022 9.06951
LeftHand  -4.05016 -8.69766 33.6326
RightShoulder  5.13989 9.47052 24.8805
RightArm  7.95834 -50.6351 24.9939
RightForeArm  -0.672092 33.9813 -18.5592
RightHand  -2.38302 4.57243 -27.0988
LeftUpLeg  -45.1699 4.83703 6.97656
LeftLeg  108.84 -16.3527 7.91304
LeftFoot  -50.4378 -6.94322 -19.9431
LeftToes  1.69338e-011 3.79281e-011 -2.20049e-011
182
root  0.0660995 24.8883 12.8798 -165.503 4.75064 -174.094
RightUpLeg  -85.4582 -2.48649 19.1174
RightLeg  88.477 16.664 -17.1169
RightFoot  -21.4339 -0.25695 -4.54566
RightToes  -1.16415e-010 -3.18055e-015 -2.98177e-016
Spine  41.6329 -1.94204 3.49739
Spine1  -1.82329 -3.2267 12.145
HEad  -25.7759 5.61298 0.695722
LeftShoulder1  -3.88251e-019 9.70628e-020 -3.87848e-018
LeftArm  -15.823 17.0965 -54.8154
LeftForeArm  7.71493 -38.646 9.43082
LeftHand  -3.9974 -8.52325 33.6242
RightShoulder  4.98261 9.36157 24.1824
RightArm  6.27128 -49.5449 26.6551
RightForeArm  -2.30943 34.643 -18.9074
RightHand  -2.12651 3.99982 -25.6361
LeftUpLeg  -44.4586 4.04844 7.01027
LeftLeg  107.925 -16.1315 7.68181
LeftFoot  -50.5418 -7.32107 -20.968
LeftToes  1.69338e-011 3.79281e-011 -2.20049e-011
